# xmcd
# 
# Track frame offsets:
#     182
#     18400
#     35947
#     62765
#     83537
#     108822
#     135140
#     164315
#     193937
#     223942
#     237215
# 
# Disc length: 3503
# 
# Revision: 1
# Processed by: cddbd v1.5.2PL0 Copyright (c) Steve Scherf et al.
# Submitted via: BonkEnc v1.0.6
# 
DISCID=900dad0b
DTITLE=Steve Kuhn - Two by Two
DYEAR=1995
DGENRE=Contemporary Jazz
TTITLE0=Gentle Thoughts
TTITLE1=Two by Two
TTITLE2=Remember
TTITLE3=Wrong Together
TTITLE4=Eiderdown
TTITLE5=Lullaby
TTITLE6=Ladies in Mercedes
TTITLE7=Deep Tango
TTITLE8=Poem for # 15
TTITLE9=Mr. Calypso Kuhn
TTITLE10=Emmanuel
EXTD=
EXTT0=
EXTT1=
EXTT2=
EXTT3=
EXTT4=
EXTT5=
EXTT6=
EXTT7=
EXTT8=
EXTT9=
EXTT10=
PLAYORDER=
